# xmcd
#
# Track frame offsets: 
#        150
#        11881
#        24165
#        35332
#        45200
#        59047
#        69571
#        87780
#        98646
#        111712
#        125089
#        135988
#        161898
#        173879
#        187241
#        203871
#        217374
#        227161
#
# Disc length: 3184 seconds
#
# Revision: 4
# Processed by: cddbd v1.5.2PL0 Copyright (c) Steve Scherf et al.
# Submitted via: ExactAudioCopy v1.0b3
#
DISCID=0b0c6e12
DTITLE=The Legendary Blues Singers - Play Me The Blues...
DYEAR=2001
DGENRE=Blues
TTITLE0=John Lee Hooker - Boogie Chillen 2
TTITLE1=John Lee Hooker - I'm In The Mood
TTITLE2=John Lee Hooker - Boom Boom
TTITLE3=John Lee Hooker - Dimples
TTITLE4=John Lee Hooker - Hobo Blues
TTITLE5=John Lee Hooker - Dusty Road
TTITLE6=John Lee Hooker - House Rent Boogie
TTITLE7=John Lee Hooker - No Shoes
TTITLE8=John Lee Hooker - I'm So Excited
TTITLE9=John Lee Hooker - Baby Lee
TTITLE10=John Lee Hooker - Bottle Up And Go
TTITLE11=John Lee Hooker - Drug Store Woman
TTITLE12=John Lee Hooker - Frisco
TTITLE13=John Lee Hooker - Whiskey And Wimmen
TTITLE14=John Lee Hooker - Process
TTITLE15=John Lee Hooker - Trouble Blues
TTITLE16=John Lee Hooker - Onions
TTITLE17=John Lee Hooker - Good Rockin' Mama
EXTD=YEAR: 2001  ID3G:   0
EXTT0=
EXTT1=
EXTT2=
EXTT3=
EXTT4=
EXTT5=
EXTT6=
EXTT7=
EXTT8=
EXTT9=
EXTT10=
EXTT11=
EXTT12=
EXTT13=
EXTT14=
EXTT15=
EXTT16=
EXTT17=
PLAYORDER=
